<?xml version="1.0" encoding="UTF-8"?>
<svg width="224px" height="470px" viewBox="0 0 224 470" version="1.1" xmlns="http://www.w3.org/2000/svg" xmlns:xlink="http://www.w3.org/1999/xlink">
    <!-- Generator: Sketch 53.2 (72643) - https://sketchapp.com -->
    <title>logo</title>
    <desc>Created with Sketch.</desc>
    <g id="logo" stroke="none" stroke-width="1" fill="none" fill-rule="evenodd">
        <path d="M207.999622,116.26291 L207.995497,58.8461007 L111.620836,189.867881 L67.2791519,128.183799 L67.2791519,185.28383 L93.9891133,222.754407 L93.9891133,339.199599 C99.224198,343.98544 105.227827,346.378361 112,346.378361 C118.772173,346.378361 124.470848,344.101314 129.096025,339.547219 L129.096025,223.345287 L207.999622,116.26291 Z M51.2197663,164.355812 L51.2791519,164.436899 L51.2791519,108.771745 L16.0044459,59.2359235 L16.0005768,113.420916 L16.0003736,143.345108 L16,293.042431 C16,311.518958 19.2629912,327.603663 25.3875585,341.239334 L2.9745349,323.362005 C1.04095565,314.064563 0,303.966318 0,293.042431 L0,10 L111.660011,85.0024334 L223.991988,10 L224,293.042431 C224,303.966318 222.959044,314.064563 221.025465,323.362005 L198.612442,341.239334 C204.737009,327.603663 208,311.518958 208,293.042431 L208,143.234296 L172.720848,191.112664 L172.720848,301.066686 C172.720848,327.074637 165.452458,346.295627 151.625752,358.497168 C150.234304,359.725068 137.02572,370.221704 112,389.987076 C86.7857794,370.055359 73.5771953,359.558723 72.3742477,358.497168 C58.5475416,346.295627 51.2791519,327.074637 51.2791519,301.066686 L51.2791519,191.515848 L51.2197663,191.434761 L51.2197663,164.355812 Z M213.063215,369.731415 C210.571181,374.360658 207.468969,379.983579 203.862617,386.245222 C199.45986,387.132483 194.357558,388.957233 188.429918,391.781416 C168.157582,401.440032 151.51736,422.024542 118.890368,453.445073 L112.08375,460 L105.300624,453.426525 C72.8854966,422.013272 56.3555422,401.435496 36.0927268,391.781416 C28.9123271,388.360364 22.9196014,386.4046 17.8965223,385.808103 C14.4525808,379.81793 11.4767507,374.425587 9.06321462,369.946344 C19.3955058,368.688504 31.4984263,371.367047 44.8662935,377.736076 C65.812988,387.715986 81.4630407,407.185558 112.125748,436.216228 C142.97382,407.182826 158.714425,387.713714 179.656351,377.736076 C192.030605,371.840447 203.302507,369.105116 213.063215,369.731415 Z" id="Shape" fill="#000000" fill-rule="nonzero"></path>
    </g>
</svg>