<?xml version="1.0" standalone="no"?>
<!DOCTYPE svg PUBLIC "-//W3C//DTD SVG 20010904//EN"
 "http://www.w3.org/TR/2001/REC-SVG-20010904/DTD/svg10.dtd">
<svg version="1.0" xmlns="http://www.w3.org/2000/svg"
 width="16.000000pt" height="16.000000pt" viewBox="0 0 16.000000 16.000000"
 preserveAspectRatio="xMidYMid meet">
<metadata>
Created by potrace 1.11, written by Peter Selinger 2001-2013
</metadata>
<g transform="translate(0.000000,16.000000) scale(0.003125,-0.003125)"
fill="#000000" stroke="none">
<path d="M2065 4064 c-121 -7 -354 -13 -517 -13 l-298 -1 0 -76 0 -75 75 -35
c41 -19 114 -45 162 -58 l88 -23 3 -1132 c2 -901 0 -1132 -10 -1135 -133 -35
-185 -53 -245 -81 l-73 -34 0 -76 0 -75 615 0 615 0 0 78 0 77 -78 34 c-42 19
-108 45 -147 57 l-70 22 -3 471 -2 471 160 0 161 0 15 -37 c256 -620 445 -945
641 -1102 l88 -70 338 -1 337 0 0 68 0 67 -95 62 c-83 55 -106 78 -192 185
-53 68 -149 195 -211 283 -115 161 -399 585 -408 609 -3 9 14 21 50 35 152 62
314 210 384 349 59 118 77 208 77 377 -1 115 -5 154 -23 220 -60 207 -205 374
-408 466 -228 104 -468 125 -1029 93z m463 -259 c177 -42 306 -164 352 -334
35 -129 30 -336 -11 -458 -56 -169 -193 -291 -364 -322 -32 -6 -119 -11 -192
-11 l-133 0 0 559 0 560 43 9 c66 15 235 13 305 -3z"/>
</g>
</svg>
