<?xml version="1.0" encoding="UTF-8"?>
<svg width="132px" height="132px" viewBox="0 0 132 132" version="1.1" xmlns="http://www.w3.org/2000/svg" xmlns:xlink="http://www.w3.org/1999/xlink">
    <!-- Generator: Sketch 54.1 (76490) - https://sketchapp.com -->
    <title>favicon-safari-pinned-tab</title>
    <desc>Created with Sketch.</desc>
    <g id="favicon" stroke="none" stroke-width="1" fill="none" fill-rule="evenodd">
        <path d="M85.2464358,119.882812 L85.2464358,104.519531 L84.8065173,104.519531 C83.4867551,107.042981 81.7637581,109.417958 79.6374745,111.644531 C77.511191,113.871105 75.0183442,115.800773 72.1588595,117.433594 C69.2993747,119.066414 66.1466567,120.402339 62.700611,121.441406 C59.2545653,122.480474 55.6252736,123 51.8126273,123 C44.4806151,123 38.2851577,121.664076 33.2260692,118.992187 C28.1669808,116.320299 24.0611156,112.869162 20.9083503,108.638672 C17.7555851,104.408182 15.4826954,99.5840115 14.089613,94.1660156 C12.6965307,88.7480198 12,83.2187782 12,77.578125 L12,9 L48.293279,9 L48.293279,69.1171875 C48.293279,72.2343906 48.5132361,75.2031109 48.9531568,78.0234375 C49.3930776,80.8437641 50.2362463,83.3671764 51.4826884,85.59375 C52.7291305,87.8203236 54.3788085,89.5644468 56.4317719,90.8261719 C58.4847353,92.0878969 61.1975391,92.71875 64.5702648,92.71875 C70.8757953,92.71875 75.6781912,90.3437737 78.9775967,85.59375 C82.2770022,80.8437263 83.9266802,75.2773757 83.9266802,68.8945312 L83.9266802,9 L120,9 L120,119.882812 L85.2464358,119.882812 Z" id="u" fill="#000000" fill-rule="nonzero"></path>
    </g>
</svg>